<svg id="Calque_1" data-name="Calque 1" xmlns="http://www.w3.org/2000/svg" viewBox="0 0 70.2 46.6"><defs><style>.cls-1,.cls-3{fill:none;stroke:#ff0;stroke-width:3px;}.cls-1{stroke-miterlimit:10;}.cls-2{fill:#ff0;}.cls-3{stroke-linecap:round;stroke-linejoin:round;}</style></defs><title>carte</title><path class="cls-1" d="M253.44,371.5h-50.2a8.49,8.49,0,0,1-8.5-8.5V336.4a8.49,8.49,0,0,1,8.5-8.5h50.2a8.49,8.49,0,0,1,8.5,8.5V363A8.56,8.56,0,0,1,253.44,371.5Z" transform="translate(-193.24 -326.4)"/><rect class="cls-2" x="1.7" y="14.7" width="8.3" height="3.2"/><rect class="cls-2" x="34.4" y="14.7" width="34.4" height="3.2"/><rect class="cls-2" x="20.95" y="0.96" width="3.2" height="45.4"/><path class="cls-3" d="M218.14,342v-2.9l8-4a18.77,18.77,0,0,1,0,16.2l-7.9-4Z" transform="translate(-193.24 -326.4)"/><path class="cls-3" d="M213.14,344.2v2.9l-8,4a18.77,18.77,0,0,1,0-16.2l7.9,4Z" transform="translate(-193.24 -326.4)"/><circle class="cls-1" cx="22.5" cy="16.6" r="3.6"/></svg>