<svg id="Calque_1" data-name="Calque 1" xmlns="http://www.w3.org/2000/svg" viewBox="0 0 56.04 52.38"><defs><style>.cls-1,.cls-2{fill:none;stroke:#ff0;stroke-linecap:round;stroke-linejoin:round;}.cls-1{stroke-width:3px;}.cls-2{stroke-width:2px;}.cls-3{fill:#ff0;}</style></defs><title>chapeau</title><path class="cls-1" d="M-474.9,351.5l19.4-42.2c7.7,11,16.7,19.1,26.9,24.6Z" transform="translate(476.4 -300.62)"/><path class="cls-1" d="M-461.3,322a68.77,68.77,0,0,0,18.5,17.2" transform="translate(476.4 -300.62)"/><path class="cls-1" d="M-466.8,333.9c1.8,4.7,5.5,7.9,10.2,10.3" transform="translate(476.4 -300.62)"/><polygon class="cls-2" points="51.2 2.98 49.7 7.88 52.9 11.88 47.8 11.97 45 16.18 43.4 11.38 38.5 10.07 42.5 6.97 42.3 1.98 46.4 4.78 51.2 2.98"/><path class="cls-3" d="M-443.2,309.9h0a.46.46,0,0,1-.5-.4l-.9-2.4-2.5-.7c-.2-.1-.4-.2-.4-.4a.73.73,0,0,1,.2-.6l2.1-1.6-.1-2.6a.55.55,0,0,1,.3-.5.64.64,0,0,1,.6,0l2.1,1.5,2.4-.9a.66.66,0,0,1,.6.1c.2.1.2.4.2.6l-.7,2.5,1.6,2a.66.66,0,0,1,.1.6.55.55,0,0,1-.5.3l-2.6.1-1.4,2.2A1.42,1.42,0,0,1-443.2,309.9Zm-2.4-4.3,1.7.5c.2,0,.3.2.4.4l.6,1.6.9-1.4a.55.55,0,0,1,.5-.3h1.7l-1.1-1.3a.44.44,0,0,1-.1-.5l.5-1.7-1.6.6a.44.44,0,0,1-.5-.1l-1.4-1,.1,1.7a.76.76,0,0,1-.2.5Z" transform="translate(476.4 -300.62)"/><path class="cls-3" d="M-425.5,326.1h0a.46.46,0,0,1-.5-.4l-.9-2.4-2.5-.7c-.2-.1-.4-.2-.4-.4a.73.73,0,0,1,.2-.6l2.1-1.6-.1-2.6a.55.55,0,0,1,.3-.5.64.64,0,0,1,.6,0l2.1,1.5,2.4-.9a.66.66,0,0,1,.6.1c.2.1.2.4.2.6l-.7,2.5,1.6,2a.66.66,0,0,1,.1.6.55.55,0,0,1-.5.3l-2.6.1-1.4,2.2A1.42,1.42,0,0,1-425.5,326.1Zm-2.5-4.3,1.7.5c.2,0,.3.2.4.4l.6,1.6.9-1.4a.55.55,0,0,1,.5-.3h1.7l-1.1-1.3a.44.44,0,0,1-.1-.5l.5-1.7-1.6.6a.44.44,0,0,1-.5-.1l-1.4-1,.1,1.7a.76.76,0,0,1-.2.5Z" transform="translate(476.4 -300.62)"/></svg>