<svg id="Calque_1" data-name="Calque 1" xmlns="http://www.w3.org/2000/svg" viewBox="0 0 50.95 59.25"><defs><style>.cls-1{fill:none;stroke:#ff0;stroke-miterlimit:10;stroke-width:3px;}.cls-2{fill:#ff0;}.cls-3{stroke:#000;stroke-linecap:round;stroke-linejoin:round;}</style></defs><title>clap</title><path class="cls-1" d="M-150.1,317.2H-110a2.8,2.8,0,0,1,2.8,2.8v29.4a2.8,2.8,0,0,1-2.8,2.8h-40.1a2.8,2.8,0,0,1-2.8-2.8V320A2.73,2.73,0,0,1-150.1,317.2Z" transform="translate(156.65 -294.45)"/><line class="cls-1" x1="3.25" y1="31.55" x2="49.45" y2="31.55"/><line class="cls-1" x1="18.65" y1="31.85" x2="23.65" y2="22.95"/><line class="cls-1" x1="8.15" y1="31.85" x2="13.15" y2="22.95"/><line class="cls-1" x1="29.45" y1="31.85" x2="34.35" y2="22.95"/><line class="cls-1" x1="39.95" y1="31.85" x2="44.85" y2="22.95"/><path class="cls-1" d="M-153.2,308.6l38.1-12.5a2.83,2.83,0,0,1,3.6,1.8l1.3,3.9a2.83,2.83,0,0,1-1.8,3.6l-38.1,12.5a2.83,2.83,0,0,1-3.6-1.8l-1.3-3.9A2.83,2.83,0,0,1-153.2,308.6Z" transform="translate(156.65 -294.45)"/><line class="cls-1" x1="7.85" y1="22.15" x2="9.85" y2="12.15"/><line class="cls-1" x1="17.85" y1="18.95" x2="19.75" y2="8.95"/><line class="cls-1" x1="28.05" y1="15.55" x2="29.95" y2="5.55"/><line class="cls-1" x1="37.95" y1="12.35" x2="39.85" y2="2.35"/><circle class="cls-2" cx="26.55" cy="44.75" r="8"/><polygon class="cls-3" points="24.25 47.65 24.15 41.55 30.15 44.55 24.25 47.65"/></svg>