<svg enable-background="new 0 0 1024 1024" height="1024" viewBox="0 0 1024 1024" width="1024" xmlns="http://www.w3.org/2000/svg" xmlns:xlink="http://www.w3.org/1999/xlink"><linearGradient id="a" gradientTransform="matrix(.9397 .3421 -.3421 .9397 840.8064 -105.4335)" gradientUnits="userSpaceOnUse" x1="231.4614" x2="-426.9566" y1="1084.9277" y2="300.3503"><stop offset="0"/><stop offset=".1921" stop-color="#090909"/><stop offset=".5054" stop-color="#212121"/><stop offset=".8987" stop-color="#494948"/><stop offset="1" stop-color="#545453"/></linearGradient><linearGradient id="b" gradientUnits="userSpaceOnUse" x1="298.1563" x2="874.2321" y1="297.9893" y2="874.0652"><stop offset="0"/><stop offset=".4833" stop-color="#090909" stop-opacity=".5167"/><stop offset="1" stop-color="#181818" stop-opacity="0"/></linearGradient><circle cx="512.001" cy="512" fill="url(#a)" r="512"/><path d="m564.542 1021.417-284.542-284.542-1.125-1.875-9.772-381.901s29.998-106.604 139.493-106.604 250.169 0 250.169 0 48.315 10.945 57.315 28.776h16.398l288.968 288.966s-5.925 46.839-12.128 69.719c0 0-12.438 46.392-22.561 69.75 0 0-13.656 32.226-22.135 47.624 0 0-7.117 13.825-14.727 26.011 0 0-12.305 19.639-17.562 27.067 0 0-12.303 17.122-16.608 22.576 0 0-10.664 13.646-18.386 22.283 0 0-11.057 12.514-17.765 19.31 0 0-6.57 6.95-14.039 13.94 0 0-23.227 21.294-33.406 29.231 0 0-38.493 28.975-56.518 39.278 0 0-26.516 15.543-43.139 23.099 0 0-33.203 14.739-45.363 18.994 0 0-12.729 4.689-23.186 7.827 0 0-16.249 4.968-25.785 7.307 0 0-10.217 2.662-19.06 4.483 0 0-11.486 2.598-22.819 4.37 0 0-17.959 2.747-23.312 3.362z" fill="url(#b)"/><circle cx="658.765" cy="364.563" fill="#fff" r="33.136"/><g fill="none" stroke="#fff" stroke-miterlimit="10" stroke-width="45"><circle cx="512.001" cy="512" r="121.412"/><path d="m255.358 612.506c0 91.127 73.875 165 165 165h183.282c91.127 0 165-73.873 165-165v-201.011c0-91.127-73.873-165-165-165h-183.282c-91.127 0-165 73.873-165 165z"/></g></svg>