<svg enable-background="new 0 0 1024 1023.998" height="1023.998" viewBox="0 0 1024 1023.998" width="1024" xmlns="http://www.w3.org/2000/svg" xmlns:xlink="http://www.w3.org/1999/xlink"><linearGradient id="a" gradientTransform="matrix(.9397 .3421 -.3421 .9397 840.8065 -105.4355)" gradientUnits="userSpaceOnUse" x1="231.4619" x2="-426.9561" y1="1084.9287" y2="300.3513"><stop offset="0"/><stop offset=".1921" stop-color="#090909"/><stop offset=".5054" stop-color="#212121"/><stop offset=".8987" stop-color="#494948"/><stop offset="1" stop-color="#545453"/></linearGradient><linearGradient id="b" gradientUnits="userSpaceOnUse" x1="408.48" x2="898.7273" y1="360.519" y2="850.7664"><stop offset="0"/><stop offset=".4833" stop-color="#090909" stop-opacity=".5167"/><stop offset="1" stop-color="#181818" stop-opacity="0"/></linearGradient><circle cx="512.001" cy="511.999" fill="url(#a)" r="512"/><path d="m635.896 1008.824-188.646-188.644.688-2.069-.375-182.859-96.313-96.07.396-1.848 115.354-103.335 32-126 13-51 49-23 101.333-23.167 9.917-6.583.5-.319 349.684 349.652s-13.639 353.067-386.538 455.242z" fill="url(#b)"/><path d="m672.75 305.64v-101.75c-3.736 0-7.473-.007-11.209.001-8.996.02-17.993-.022-26.99.001-10.972.028-21.941-.046-32.915.001-9.667.042-19.337-.097-29.003.003-14.592.151-28.442.868-42.438 5.375-13.493 4.346-26.158 11.955-36.948 21.081-6.248 5.284-12.031 10.943-17.269 17.234-2.121 2.613-4.098 5.33-5.942 8.14-5.538 8.431-9.913 17.704-13.567 27.535-.82 2.213-1.628 4.432-2.396 6.662-5.634 16.324-5.82 34.143-5.82 51.297v6.629 79.291h-97v112h93.5 2.5v281h111v-283.5l100.747 1.359 13.583-110.125-113.833-.234v-85s-.25-36.25 30.5-36.75z" fill="#fff"/></svg>