<svg enable-background="new 0 0 1024 1024" height="1024" viewBox="0 0 1024 1024" width="1024" xmlns="http://www.w3.org/2000/svg" xmlns:xlink="http://www.w3.org/1999/xlink"><linearGradient id="a" gradientTransform="matrix(.9397 .3421 .3421 -.9397 275.9552 765.9202)" gradientUnits="userSpaceOnUse" x1="464.1455" x2="-194.2722" y1="-72.9502" y2="711.6269"><stop offset="0"/><stop offset=".1921" stop-color="#090909"/><stop offset=".5054" stop-color="#212121"/><stop offset=".8987" stop-color="#494948"/><stop offset="1" stop-color="#545453"/></linearGradient><linearGradient id="b" gradientTransform="matrix(1 0 0 -1 214.3398 1116.0391)" gradientUnits="userSpaceOnUse" x1="121.0908" x2="667.3148" y1="795.4238" y2="249.1999"><stop offset="0"/><stop offset=".4833" stop-color="#090909" stop-opacity=".5167"/><stop offset="1" stop-color="#181818" stop-opacity="0"/></linearGradient><circle cx="512.001" cy="512" fill="url(#a)" r="512"/><path d="m543.025 1023.193-326.136-325.935s177.111 43.742 198.611-53.758c0 0-135.5-41.5-33-71.5 0 0-91.5-66.5-46-69 0 0-93.236-117.422-52.5-128 0 0 163.093 87.593 257.838 89.093 0 0 1.75-148.493 63.247-154.493 0 0 80.996-3 95.995 16.5l83.92-34.6 9-7.11 230 229.611s-.209 37.308-3.847 61.519c0 0-4.216 32.639-9.768 54.014 0 0-5.913 24.117-10.48 37.769 0 0-7.943 24.174-13.622 37.58 0 0-18.555 47.635-42.019 81.55 0 0-31.317 51.702-67.666 85.188 0 0-48.878 47.305-81.832 67.348 0 0-95.768 69.422-245.768 84.229" fill="url(#b)"/><path d="m742.988 348.513s52.681-44.338 51.012-64.124c0 0-60.785 26.698-74.135 27.89 0 0-4.227-4.253-11.146-9.845-2.307-1.864-4.912-3.877-7.762-5.93-5.277-3.853-10.833-7.164-16.602-9.969-2.884-1.402-5.82-2.679-8.797-3.84-19.379-8.492-40.61-10.572-61.45-8.292-2.978.326-5.946.741-8.901 1.238-34.565 5.411-64.125 26.388-82.727 54.989-1.67 2.609-3.218 5.287-4.629 8.033-2.818 5.492-5.089 11.256-6.686 17.269-.627 2.22-1.313 4.805-1.96 7.565-.648 2.76-1.259 5.695-1.736 8.615-1.907 11.681 0 49.583 0 49.583s-153.753 4.768-252.442-123.003c0 0-48.628 92.014 35.28 156.376 0 0-17.064 7.628-49.295-11.442 0 0-16.02 70.082 87.912 118.234h-50.534s17.64 77.711 111.562 84.862c0 0-44.338 59.594-173.063 50.535 0 0 116.14 80.755 265.766 43.276 2.671-.67 5.354-1.377 8.047-2.122 23.682-7.305 47.52-15.886 69.171-27.394 1.889-.979 3.779-1.982 5.671-3.008 5.677-3.072 11.377-6.343 17.099-9.816 0 0 157.32-85.241 170.191-305.489 0 0 33.063-19.401 54.277-56.587 0 .001-59.594 13.826-64.123 12.396z" fill="#fff"/></svg>