<svg id="Calque_1" data-name="Calque 1" xmlns="http://www.w3.org/2000/svg" viewBox="0 0 45.5 69.3"><defs><style>.cls-1{fill:none;stroke-linecap:round;stroke-linejoin:round;stroke-width:3px;}.cls-1,.cls-2,.cls-3{stroke:#ff0;}.cls-2,.cls-3{fill:#ff0;stroke-miterlimit:10;}.cls-2{stroke-width:0.75px;}</style></defs><title>pack</title><rect class="cls-1" x="1.5" y="20" width="25.6" height="47.8"/><rect class="cls-1" x="27.1" y="20" width="16.8" height="47.8"/><polygon class="cls-1" points="27.1 20.3 44 20.3 35.4 6.3 27.1 20.3"/><polygon class="cls-1" points="1.7 19 26.8 19 35 6.5 10.5 6.5 1.7 19"/><rect class="cls-1" x="10.8" y="1.5" width="24.4" height="5.3"/><path class="cls-2" d="M-353,338.9a7.92,7.92,0,0,1-7.9-7.9,7.92,7.92,0,0,1,7.9-7.9,8,8,0,0,1,7.9,7.9A7.85,7.85,0,0,1-353,338.9Zm0-14.9a7,7,0,0,0-7,7,7,7,0,0,0,7,7,7,7,0,0,0,7-7A7,7,0,0,0-353,324Z" transform="translate(367.2 -286.6)"/><path class="cls-3" d="M-353.3,334.9h0a.48.48,0,0,1-.7-.1l-3.1-4.6a.48.48,0,0,1,.1-.7h0a.48.48,0,0,1,.7.1l3.1,4.6A.49.49,0,0,1-353.3,334.9Z" transform="translate(367.2 -286.6)"/><path class="cls-3" d="M-353.8,334.9h0a.62.62,0,0,1-.2-.7l4.2-6.9a.62.62,0,0,1,.7-.2h0a.62.62,0,0,1,.2.7l-4.2,6.9C-353.3,335-353.6,335.1-353.8,334.9Z" transform="translate(367.2 -286.6)"/></svg>