<svg viewBox="0 0 36.7 59.2" xmlns="http://www.w3.org/2000/svg"><path d="m-241.4 350.7v-50.6a2.8 2.8 0 0 1 2.8-2.8h28a2.8 2.8 0 0 1 2.8 2.8v50.6a2.8 2.8 0 0 1 -2.8 2.8h-28a2.8 2.8 0 0 1 -2.8-2.8z" fill="none" stroke="#ff0" stroke-miterlimit="10" stroke-width="3" transform="translate(242.9 -295.8)"/><circle cx="18.4" cy="52.4" fill="#ff0" r="2"/><g fill="none" stroke="#ff0" stroke-linecap="round" stroke-linejoin="round" stroke-width="2"><path d="m14.9 6.7h6.8"/><path d="m1.5 47.2h34.2"/><path d="m1.5 11h34.2"/></g><path d="m18.5 21.5 3.2-3.8.9 4.9 4.7-1.7-1.6 4.7 4.9 1-3.8 3.2 3.8 3.3-4.9.9 1.6 4.7-4.7-1.6-.9 4.9-3.2-3.8-3.3 3.8-.9-4.9-4.7 1.6 1.6-4.7-4.9-.9 3.8-3.3-3.8-3.2 4.9-1-1.6-4.7 4.7 1.7.9-4.9z" fill="#ff0"/><path d="m-221 330.6a4.42 4.42 0 0 1 -2.2.6 4.39 4.39 0 0 1 -3.1-1.3 4.79 4.79 0 0 1 -1.1-2.6h-.9v-.7h.9v-.9h-.9v-.8h1a4.53 4.53 0 0 1 1.2-2.5 4 4 0 0 1 3-1.3 4.44 4.44 0 0 1 2 .5l-.3 1a3.87 3.87 0 0 0 -1.7-.4 2.79 2.79 0 0 0 -2 .8 2.85 2.85 0 0 0 -.9 1.9h4.2v.8h-4.3v.9h4.4v.7h-4.3a3.67 3.67 0 0 0 .8 2 2.88 2.88 0 0 0 2.1.9 3.52 3.52 0 0 0 1.8-.5z" transform="translate(242.9 -295.8)"/></svg>